<svg width="176" height="32" viewBox="0 0 176 32" fill="none" xmlns="http://www.w3.org/2000/svg">
<path d="M7.62295 24.5252C5.10414 24.5252 2.38648 23.6967 0.000244141 21.8407L2.15449 18.5265C4.10987 19.9516 6.06526 20.6476 7.75552 20.6476C9.21377 20.6476 9.87661 20.1173 9.87661 19.3219V19.2556C9.87661 18.1619 8.15322 17.8305 6.19783 17.2008C3.71217 16.5048 0.895083 15.3117 0.895083 11.8649V11.7986C0.895083 8.18612 3.81159 6.16444 7.39095 6.16444C9.64462 6.16444 12.064 6.92672 14.0194 8.21926L12.0971 11.6992C10.3406 10.6718 8.58407 10.0421 7.29152 10.0421C6.06526 10.0421 5.43556 10.5724 5.43556 11.2683V11.3346C5.43556 12.2626 7.12581 12.8592 9.04806 13.4557C11.5337 14.2511 14.4171 15.4774 14.4171 18.7253V18.7916C14.4171 22.7355 11.4674 24.5252 7.62295 24.5252Z" fill="#333C4F"/>
<path d="M17.4646 4.47419V0H22.7674V4.47419H17.4646ZM17.5972 24.1938V6.42958H22.6348V24.1938H17.5972Z" fill="#333C4F"/>
<path d="M26.7033 24.1938V6.42958H31.7409V8.94839C32.9008 7.45699 34.4254 6.09816 36.9773 6.09816C39.3304 6.09816 41.0538 7.09243 41.9818 8.91525C43.5395 7.05928 45.3954 6.09816 47.8148 6.09816C51.5599 6.09816 53.8136 8.35183 53.8136 12.6272V24.1938H48.7759V14.2843C48.7759 11.898 47.7154 10.6718 45.8263 10.6718C43.9372 10.6718 42.7772 11.898 42.7772 14.2843V24.1938H37.7396V14.2843C37.7396 11.898 36.6791 10.6718 34.7899 10.6718C32.9008 10.6718 31.7409 11.898 31.7409 14.2843V24.1938H26.7033Z" fill="#333C4F"/>
<path d="M57.532 32V6.42958H62.5696V8.98153C63.7958 7.29128 65.4529 6.09816 68.1043 6.09816C72.2471 6.09816 76.191 9.3461 76.191 15.2785V15.3448C76.191 21.2773 72.3134 24.5252 68.1043 24.5252C65.4198 24.5252 63.7627 23.299 62.5696 21.8738V32H57.532ZM66.8118 20.2499C69.1649 20.2499 71.1534 18.3276 71.1534 15.3448V15.2785C71.1534 12.3289 69.1649 10.3735 66.8118 10.3735C64.4587 10.3735 62.5033 12.3289 62.5033 15.2785V15.3448C62.5033 18.2945 64.4587 20.2499 66.8118 20.2499Z" fill="#333C4F"/>
<path d="M79.4656 24.1938V0H84.5032V24.1938H79.4656Z" fill="#333C4F"/>
<path d="M88.6711 12.926V8.4518H93.9739V12.926H88.6711ZM88.8037 32V14.8814H93.8413V32H88.8037Z" fill="#333C4F"/>
<path d="M98.1417 24.1938V0H103.179V24.1938H98.1417Z" fill="#333C4F"/>
<path d="M115.666 24.5915C110.33 24.5915 106.386 20.8464 106.386 15.4111V15.3448C106.386 10.2741 109.999 6.09816 115.169 6.09816C121.101 6.09816 123.819 10.7049 123.819 15.7425C123.819 16.1402 123.786 16.5711 123.753 17.0682H111.391C111.888 19.355 113.479 20.5482 115.732 20.5482C117.422 20.5482 118.616 20.0179 120.041 18.7253L122.924 21.2773C121.234 23.3652 118.881 24.5915 115.666 24.5915ZM111.324 13.9197H118.914C118.616 11.666 117.29 10.1415 115.169 10.1415C113.048 10.1415 111.722 11.6329 111.324 13.9197Z" fill="#333C4F"/>
<path d="M131.948 24.5252C128.601 24.5252 125.85 22.6361 125.85 19.0899V19.0236C125.85 15.1791 128.8 13.3563 133.009 13.3563C134.831 13.3563 136.058 13.6546 137.35 14.0854V13.7871C137.35 11.666 136.058 10.5392 133.539 10.5392C131.583 10.5392 130.258 10.8706 128.634 11.5003L127.374 7.65584C129.33 6.82729 131.252 6.23073 134.268 6.23073C137.052 6.23073 138.974 6.92672 140.267 8.21926C141.592 9.54495 142.189 11.5003 142.189 13.8866V24.1938H137.317V22.2715C136.091 23.6304 134.434 24.5252 131.948 24.5252ZM133.473 21.0453C135.859 21.0453 137.417 19.7859 137.417 17.9299V17.0351C136.522 16.6374 135.428 16.3722 134.202 16.3722C132.047 16.3722 130.722 17.2339 130.722 18.8248V18.891C130.722 20.2499 131.849 21.0453 133.473 21.0453Z" fill="#333C4F"/>
<path d="M145.861 24.1938V6.42958H150.899V10.0089C151.926 7.58956 153.55 5.96559 156.566 6.09816V11.3678H156.301C152.953 11.3678 150.899 13.3563 150.899 17.6316V24.1938H145.861Z" fill="#333C4F"/>
<path d="M159.051 24.1938V6.42958H164.088V8.94839C165.248 7.45699 166.773 6.09816 169.292 6.09816C173.136 6.09816 175.323 8.58383 175.323 12.6935V24.1938H170.286V14.2843C170.286 11.898 169.192 10.6718 167.237 10.6718C165.281 10.6718 164.088 11.898 164.088 14.2843V24.1938H159.051Z" fill="#333C4F"/>
</svg>
