<svg width="176" height="32" viewBox="0 0 176 32" fill="none" xmlns="http://www.w3.org/2000/svg">
<path d="M7.6227 24.5252C5.1039 24.5252 2.38624 23.6967 0 21.8407L2.15424 18.5265C4.10963 19.9516 6.06502 20.6476 7.75527 20.6476C9.21353 20.6476 9.87637 20.1173 9.87637 19.3219V19.2556C9.87637 18.1619 8.15298 17.8305 6.19759 17.2008C3.71192 16.5048 0.894839 15.3117 0.894839 11.8649V11.7986C0.894839 8.18612 3.81135 6.16445 7.39071 6.16445C9.64437 6.16445 12.0638 6.92672 14.0191 8.21926L12.0969 11.6992C10.3404 10.6718 8.58383 10.0421 7.29128 10.0421C6.06502 10.0421 5.43532 10.5724 5.43532 11.2683V11.3346C5.43532 12.2626 7.12557 12.8592 9.04782 13.4557C11.5335 14.2511 14.4169 15.4774 14.4169 18.7253V18.7916C14.4169 22.7355 11.4672 24.5252 7.6227 24.5252Z" fill="#0041C2"/>
<path d="M17.4644 4.47419V0H22.7671V4.47419H17.4644ZM17.5969 24.1938V6.42958H22.6346V24.1938H17.5969Z" fill="#0041C2"/>
<path d="M26.703 24.1938V6.42958H31.7406V8.94839C32.9006 7.45699 34.4251 6.09816 36.9771 6.09816C39.3302 6.09816 41.0536 7.09243 41.9816 8.91525C43.5392 7.05928 45.3952 6.09816 47.8146 6.09816C51.5597 6.09816 53.8133 8.35183 53.8133 12.6272V24.1938H48.7757V14.2843C48.7757 11.898 47.7152 10.6718 45.8261 10.6718C43.937 10.6718 42.777 11.898 42.777 14.2843V24.1938H37.7394V14.2843C37.7394 11.898 36.6788 10.6718 34.7897 10.6718C32.9006 10.6718 31.7406 11.898 31.7406 14.2843V24.1938H26.703Z" fill="#0041C2"/>
<path d="M57.5317 32V6.42958H62.5693V8.98153C63.7956 7.29128 65.4527 6.09816 68.1041 6.09816C72.2468 6.09816 76.1908 9.3461 76.1908 15.2785V15.3448C76.1908 21.2773 72.3131 24.5252 68.1041 24.5252C65.4196 24.5252 63.7624 23.299 62.5693 21.8738V32H57.5317ZM66.8115 20.2499C69.1646 20.2499 71.1532 18.3276 71.1532 15.3448V15.2785C71.1532 12.3289 69.1646 10.3735 66.8115 10.3735C64.4584 10.3735 62.5031 12.3289 62.5031 15.2785V15.3448C62.5031 18.2945 64.4584 20.2499 66.8115 20.2499Z" fill="#0041C2"/>
<path d="M79.4654 24.1938V0H84.503V24.1938H79.4654Z" fill="#0041C2"/>
<path d="M88.6709 12.926V8.4518H93.9736V12.926H88.6709ZM88.8034 32V14.8814H93.8411V32H88.8034Z" fill="#0041C2"/>
<path d="M98.1415 24.1938V0H103.179V24.1938H98.1415Z" fill="#F78100"/>
<path d="M115.666 24.5915C110.33 24.5915 106.386 20.8464 106.386 15.4111V15.3448C106.386 10.2741 109.998 6.09816 115.169 6.09816C121.101 6.09816 123.819 10.7049 123.819 15.7425C123.819 16.1402 123.786 16.5711 123.752 17.0682H111.39C111.887 19.355 113.478 20.5482 115.732 20.5482C117.422 20.5482 118.615 20.0179 120.04 18.7253L122.924 21.2773C121.234 23.3652 118.88 24.5915 115.666 24.5915ZM111.324 13.9197H118.914C118.615 11.666 117.29 10.1415 115.169 10.1415C113.047 10.1415 111.722 11.6329 111.324 13.9197Z" fill="#F78100"/>
<path d="M131.948 24.5252C128.6 24.5252 125.85 22.6361 125.85 19.0899V19.0236C125.85 15.1791 128.799 13.3563 133.008 13.3563C134.831 13.3563 136.057 13.6546 137.35 14.0854V13.7871C137.35 11.666 136.057 10.5392 133.539 10.5392C131.583 10.5392 130.258 10.8706 128.634 11.5003L127.374 7.65584C129.33 6.82729 131.252 6.23073 134.268 6.23073C137.052 6.23073 138.974 6.92672 140.267 8.21926C141.592 9.54495 142.189 11.5003 142.189 13.8866V24.1938H137.317V22.2715C136.091 23.6304 134.433 24.5252 131.948 24.5252ZM133.472 21.0453C135.859 21.0453 137.416 19.7859 137.416 17.9299V17.0351C136.521 16.6374 135.428 16.3722 134.201 16.3722C132.047 16.3722 130.722 17.2339 130.722 18.8248V18.891C130.722 20.2499 131.848 21.0453 133.472 21.0453Z" fill="#F78100"/>
<path d="M145.861 24.1938V6.42958H150.898V10.0089C151.926 7.58956 153.55 5.96559 156.566 6.09816V11.3678H156.301C152.953 11.3678 150.898 13.3563 150.898 17.6316V24.1938H145.861Z" fill="#F78100"/>
<path d="M159.05 24.1938V6.42958H164.088V8.94839C165.248 7.45699 166.772 6.09816 169.291 6.09816C173.136 6.09816 175.323 8.58383 175.323 12.6935V24.1938H170.286V14.2843C170.286 11.898 169.192 10.6718 167.236 10.6718C165.281 10.6718 164.088 11.898 164.088 14.2843V24.1938H159.05Z" fill="#F78100"/>
</svg>
